<mxfile host="app.diagrams.net" modified="2023-12-24T01:32:32.325Z" agent="Mozilla/5.0 (Windows NT 10.0; Win64; x64) AppleWebKit/537.36 (KHTML, like Gecko) Chrome/119.0.0.0 Safari/537.36 OPR/105.0.0.0" etag="zRy56WohKsi7jowfVVo4" version="22.1.11" type="device">
  <diagram name="Página-1" id="8zchT0Xct5kr4ZCW7PXx">
    <mxGraphModel dx="2967" dy="2409" grid="1" gridSize="10" guides="1" tooltips="1" connect="1" arrows="1" fold="1" page="1" pageScale="1" pageWidth="827" pageHeight="1169" math="0" shadow="0">
      <root>
        <mxCell id="0" />
        <mxCell id="1" parent="0" />
        <mxCell id="3Y7h35E7F_VyLYyRQoFp-5" value="Criar novos Admins" style="ellipse;whiteSpace=wrap;html=1;" vertex="1" parent="1">
          <mxGeometry x="-440" y="370" width="140" height="70" as="geometry" />
        </mxCell>
        <mxCell id="3Y7h35E7F_VyLYyRQoFp-68" style="edgeStyle=orthogonalEdgeStyle;rounded=0;orthogonalLoop=1;jettySize=auto;html=1;endArrow=block;endFill=0;" edge="1" parent="1" source="3Y7h35E7F_VyLYyRQoFp-6" target="3Y7h35E7F_VyLYyRQoFp-14">
          <mxGeometry relative="1" as="geometry" />
        </mxCell>
        <mxCell id="3Y7h35E7F_VyLYyRQoFp-102" style="edgeStyle=orthogonalEdgeStyle;rounded=0;orthogonalLoop=1;jettySize=auto;html=1;entryX=1;entryY=0.5;entryDx=0;entryDy=0;endArrow=none;endFill=0;" edge="1" parent="1" source="3Y7h35E7F_VyLYyRQoFp-6" target="3Y7h35E7F_VyLYyRQoFp-13">
          <mxGeometry relative="1" as="geometry" />
        </mxCell>
        <mxCell id="3Y7h35E7F_VyLYyRQoFp-103" style="edgeStyle=orthogonalEdgeStyle;rounded=0;orthogonalLoop=1;jettySize=auto;html=1;entryX=1;entryY=0.5;entryDx=0;entryDy=0;endArrow=none;endFill=0;" edge="1" parent="1" source="3Y7h35E7F_VyLYyRQoFp-6" target="3Y7h35E7F_VyLYyRQoFp-5">
          <mxGeometry relative="1" as="geometry" />
        </mxCell>
        <mxCell id="3Y7h35E7F_VyLYyRQoFp-104" style="edgeStyle=orthogonalEdgeStyle;rounded=0;orthogonalLoop=1;jettySize=auto;html=1;entryX=1;entryY=0.5;entryDx=0;entryDy=0;endArrow=none;endFill=0;" edge="1" parent="1" source="3Y7h35E7F_VyLYyRQoFp-6" target="3Y7h35E7F_VyLYyRQoFp-74">
          <mxGeometry relative="1" as="geometry" />
        </mxCell>
        <mxCell id="3Y7h35E7F_VyLYyRQoFp-6" value="Root" style="shape=umlActor;verticalLabelPosition=bottom;verticalAlign=top;html=1;" vertex="1" parent="1">
          <mxGeometry x="-150" y="360" width="80" height="160" as="geometry" />
        </mxCell>
        <mxCell id="3Y7h35E7F_VyLYyRQoFp-13" value="Criar novos Roots de Hierarquia menor" style="ellipse;whiteSpace=wrap;html=1;" vertex="1" parent="1">
          <mxGeometry x="-440" y="290" width="140" height="70" as="geometry" />
        </mxCell>
        <mxCell id="3Y7h35E7F_VyLYyRQoFp-60" style="edgeStyle=orthogonalEdgeStyle;rounded=0;orthogonalLoop=1;jettySize=auto;html=1;endArrow=block;endFill=0;" edge="1" parent="1" source="3Y7h35E7F_VyLYyRQoFp-14" target="3Y7h35E7F_VyLYyRQoFp-15">
          <mxGeometry relative="1" as="geometry">
            <mxPoint x="30" y="200" as="targetPoint" />
            <Array as="points">
              <mxPoint x="-20" y="-200" />
              <mxPoint x="-20" y="440" />
            </Array>
          </mxGeometry>
        </mxCell>
        <mxCell id="3Y7h35E7F_VyLYyRQoFp-97" style="edgeStyle=orthogonalEdgeStyle;rounded=0;orthogonalLoop=1;jettySize=auto;html=1;entryX=1;entryY=0.5;entryDx=0;entryDy=0;endArrow=none;endFill=0;" edge="1" parent="1" source="3Y7h35E7F_VyLYyRQoFp-14" target="3Y7h35E7F_VyLYyRQoFp-62">
          <mxGeometry relative="1" as="geometry" />
        </mxCell>
        <mxCell id="3Y7h35E7F_VyLYyRQoFp-98" style="edgeStyle=orthogonalEdgeStyle;rounded=0;orthogonalLoop=1;jettySize=auto;html=1;entryX=1;entryY=0.5;entryDx=0;entryDy=0;endArrow=none;endFill=0;" edge="1" parent="1" source="3Y7h35E7F_VyLYyRQoFp-14" target="3Y7h35E7F_VyLYyRQoFp-64">
          <mxGeometry relative="1" as="geometry" />
        </mxCell>
        <mxCell id="3Y7h35E7F_VyLYyRQoFp-99" style="edgeStyle=orthogonalEdgeStyle;rounded=0;orthogonalLoop=1;jettySize=auto;html=1;entryX=1;entryY=0.5;entryDx=0;entryDy=0;endArrow=none;endFill=0;" edge="1" parent="1" source="3Y7h35E7F_VyLYyRQoFp-14" target="3Y7h35E7F_VyLYyRQoFp-20">
          <mxGeometry relative="1" as="geometry" />
        </mxCell>
        <mxCell id="3Y7h35E7F_VyLYyRQoFp-100" style="edgeStyle=orthogonalEdgeStyle;rounded=0;orthogonalLoop=1;jettySize=auto;html=1;entryX=1;entryY=0.5;entryDx=0;entryDy=0;endArrow=none;endFill=0;" edge="1" parent="1" source="3Y7h35E7F_VyLYyRQoFp-14" target="3Y7h35E7F_VyLYyRQoFp-18">
          <mxGeometry relative="1" as="geometry" />
        </mxCell>
        <mxCell id="3Y7h35E7F_VyLYyRQoFp-101" style="edgeStyle=orthogonalEdgeStyle;rounded=0;orthogonalLoop=1;jettySize=auto;html=1;entryX=1;entryY=0.5;entryDx=0;entryDy=0;endArrow=none;endFill=0;" edge="1" parent="1" source="3Y7h35E7F_VyLYyRQoFp-14" target="3Y7h35E7F_VyLYyRQoFp-19">
          <mxGeometry relative="1" as="geometry" />
        </mxCell>
        <mxCell id="3Y7h35E7F_VyLYyRQoFp-14" value="Admin" style="shape=umlActor;verticalLabelPosition=bottom;verticalAlign=top;html=1;" vertex="1" parent="1">
          <mxGeometry x="-150" y="-280" width="80" height="160" as="geometry" />
        </mxCell>
        <mxCell id="3Y7h35E7F_VyLYyRQoFp-41" style="edgeStyle=orthogonalEdgeStyle;rounded=0;orthogonalLoop=1;jettySize=auto;html=1;exitX=0.5;exitY=0.5;exitDx=0;exitDy=0;exitPerimeter=0;endArrow=block;endFill=0;" edge="1" parent="1" source="3Y7h35E7F_VyLYyRQoFp-15" target="3Y7h35E7F_VyLYyRQoFp-16">
          <mxGeometry relative="1" as="geometry">
            <mxPoint x="90" y="-30" as="targetPoint" />
          </mxGeometry>
        </mxCell>
        <mxCell id="3Y7h35E7F_VyLYyRQoFp-43" style="edgeStyle=orthogonalEdgeStyle;rounded=0;orthogonalLoop=1;jettySize=auto;html=1;exitX=0.5;exitY=0.5;exitDx=0;exitDy=0;exitPerimeter=0;entryX=0;entryY=0.5;entryDx=0;entryDy=0;endArrow=none;endFill=0;" edge="1" parent="1" source="3Y7h35E7F_VyLYyRQoFp-15" target="3Y7h35E7F_VyLYyRQoFp-42">
          <mxGeometry relative="1" as="geometry" />
        </mxCell>
        <mxCell id="3Y7h35E7F_VyLYyRQoFp-51" style="edgeStyle=orthogonalEdgeStyle;rounded=0;orthogonalLoop=1;jettySize=auto;html=1;entryX=0;entryY=0.5;entryDx=0;entryDy=0;endArrow=none;endFill=0;" edge="1" parent="1" source="3Y7h35E7F_VyLYyRQoFp-15" target="3Y7h35E7F_VyLYyRQoFp-37">
          <mxGeometry relative="1" as="geometry" />
        </mxCell>
        <mxCell id="3Y7h35E7F_VyLYyRQoFp-52" style="edgeStyle=orthogonalEdgeStyle;rounded=0;orthogonalLoop=1;jettySize=auto;html=1;entryX=0;entryY=0.5;entryDx=0;entryDy=0;endArrow=none;endFill=0;" edge="1" parent="1" source="3Y7h35E7F_VyLYyRQoFp-15" target="3Y7h35E7F_VyLYyRQoFp-44">
          <mxGeometry relative="1" as="geometry" />
        </mxCell>
        <mxCell id="3Y7h35E7F_VyLYyRQoFp-53" style="edgeStyle=orthogonalEdgeStyle;rounded=0;orthogonalLoop=1;jettySize=auto;html=1;entryX=0;entryY=0.5;entryDx=0;entryDy=0;endArrow=none;endFill=0;" edge="1" parent="1" source="3Y7h35E7F_VyLYyRQoFp-15" target="3Y7h35E7F_VyLYyRQoFp-46">
          <mxGeometry relative="1" as="geometry" />
        </mxCell>
        <mxCell id="3Y7h35E7F_VyLYyRQoFp-56" style="edgeStyle=orthogonalEdgeStyle;rounded=0;orthogonalLoop=1;jettySize=auto;html=1;entryX=0;entryY=0.5;entryDx=0;entryDy=0;endArrow=none;endFill=0;" edge="1" parent="1" source="3Y7h35E7F_VyLYyRQoFp-15" target="3Y7h35E7F_VyLYyRQoFp-54">
          <mxGeometry relative="1" as="geometry" />
        </mxCell>
        <mxCell id="3Y7h35E7F_VyLYyRQoFp-58" style="edgeStyle=orthogonalEdgeStyle;rounded=0;orthogonalLoop=1;jettySize=auto;html=1;entryX=0;entryY=0.5;entryDx=0;entryDy=0;endArrow=none;endFill=0;" edge="1" parent="1" source="3Y7h35E7F_VyLYyRQoFp-15" target="3Y7h35E7F_VyLYyRQoFp-57">
          <mxGeometry relative="1" as="geometry" />
        </mxCell>
        <mxCell id="3Y7h35E7F_VyLYyRQoFp-78" style="edgeStyle=orthogonalEdgeStyle;rounded=0;orthogonalLoop=1;jettySize=auto;html=1;entryX=0;entryY=0.5;entryDx=0;entryDy=0;endArrow=none;endFill=0;" edge="1" parent="1" source="3Y7h35E7F_VyLYyRQoFp-15" target="3Y7h35E7F_VyLYyRQoFp-77">
          <mxGeometry relative="1" as="geometry" />
        </mxCell>
        <mxCell id="3Y7h35E7F_VyLYyRQoFp-15" value="Usuario Autenticado" style="shape=umlActor;verticalLabelPosition=bottom;verticalAlign=top;html=1;" vertex="1" parent="1">
          <mxGeometry x="40" y="360" width="80" height="160" as="geometry" />
        </mxCell>
        <mxCell id="3Y7h35E7F_VyLYyRQoFp-50" style="edgeStyle=orthogonalEdgeStyle;rounded=0;orthogonalLoop=1;jettySize=auto;html=1;entryX=0;entryY=0.5;entryDx=0;entryDy=0;endArrow=none;endFill=0;" edge="1" parent="1" source="3Y7h35E7F_VyLYyRQoFp-16" target="3Y7h35E7F_VyLYyRQoFp-39">
          <mxGeometry relative="1" as="geometry" />
        </mxCell>
        <mxCell id="3Y7h35E7F_VyLYyRQoFp-92" style="edgeStyle=orthogonalEdgeStyle;rounded=0;orthogonalLoop=1;jettySize=auto;html=1;entryX=0;entryY=0.5;entryDx=0;entryDy=0;" edge="1" parent="1" source="3Y7h35E7F_VyLYyRQoFp-16" target="3Y7h35E7F_VyLYyRQoFp-22">
          <mxGeometry relative="1" as="geometry" />
        </mxCell>
        <mxCell id="3Y7h35E7F_VyLYyRQoFp-16" value="Usuario" style="shape=umlActor;verticalLabelPosition=bottom;verticalAlign=top;html=1;" vertex="1" parent="1">
          <mxGeometry x="40" y="-280" width="80" height="160" as="geometry" />
        </mxCell>
        <mxCell id="3Y7h35E7F_VyLYyRQoFp-18" value="Bloquear usuarios" style="ellipse;whiteSpace=wrap;html=1;" vertex="1" parent="1">
          <mxGeometry x="-440" y="-20" width="140" height="70" as="geometry" />
        </mxCell>
        <mxCell id="3Y7h35E7F_VyLYyRQoFp-19" value="Visualizar historico de bloqueamento de usuários" style="ellipse;whiteSpace=wrap;html=1;" vertex="1" parent="1">
          <mxGeometry x="-440" y="70" width="140" height="70" as="geometry" />
        </mxCell>
        <mxCell id="3Y7h35E7F_VyLYyRQoFp-20" value="Visualizar o histórico de denuncias de postagem." style="ellipse;whiteSpace=wrap;html=1;" vertex="1" parent="1">
          <mxGeometry x="-440" y="-110" width="140" height="70" as="geometry" />
        </mxCell>
        <mxCell id="3Y7h35E7F_VyLYyRQoFp-21" value="visualizar postagens recentes." style="ellipse;whiteSpace=wrap;html=1;" vertex="1" parent="1">
          <mxGeometry x="440" y="-290" width="140" height="70" as="geometry" />
        </mxCell>
        <mxCell id="3Y7h35E7F_VyLYyRQoFp-93" style="edgeStyle=orthogonalEdgeStyle;rounded=0;orthogonalLoop=1;jettySize=auto;html=1;entryX=0;entryY=0.5;entryDx=0;entryDy=0;dashed=1;" edge="1" parent="1" source="3Y7h35E7F_VyLYyRQoFp-22" target="3Y7h35E7F_VyLYyRQoFp-21">
          <mxGeometry relative="1" as="geometry" />
        </mxCell>
        <mxCell id="3Y7h35E7F_VyLYyRQoFp-94" value="Include" style="edgeLabel;html=1;align=center;verticalAlign=middle;resizable=0;points=[];" vertex="1" connectable="0" parent="3Y7h35E7F_VyLYyRQoFp-93">
          <mxGeometry x="-0.0265" y="-1" relative="1" as="geometry">
            <mxPoint as="offset" />
          </mxGeometry>
        </mxCell>
        <mxCell id="3Y7h35E7F_VyLYyRQoFp-22" value="acessar detalhes de uma postagem." style="ellipse;whiteSpace=wrap;html=1;" vertex="1" parent="1">
          <mxGeometry x="210" y="-290" width="140" height="70" as="geometry" />
        </mxCell>
        <mxCell id="3Y7h35E7F_VyLYyRQoFp-32" value="fazer postagem" style="ellipse;whiteSpace=wrap;html=1;" vertex="1" parent="1">
          <mxGeometry x="230" y="-40" width="140" height="70" as="geometry" />
        </mxCell>
        <mxCell id="3Y7h35E7F_VyLYyRQoFp-35" value="&amp;nbsp;gerenciar o seu perfil, mudando suas informações pessoais" style="ellipse;whiteSpace=wrap;html=1;" vertex="1" parent="1">
          <mxGeometry x="230" y="150" width="140" height="70" as="geometry" />
        </mxCell>
        <mxCell id="3Y7h35E7F_VyLYyRQoFp-36" style="edgeStyle=orthogonalEdgeStyle;rounded=0;orthogonalLoop=1;jettySize=auto;html=1;exitX=0.5;exitY=0.5;exitDx=0;exitDy=0;exitPerimeter=0;entryX=0;entryY=0.5;entryDx=0;entryDy=0;endArrow=none;endFill=0;" edge="1" parent="1" source="3Y7h35E7F_VyLYyRQoFp-15" target="3Y7h35E7F_VyLYyRQoFp-35">
          <mxGeometry relative="1" as="geometry" />
        </mxCell>
        <mxCell id="3Y7h35E7F_VyLYyRQoFp-37" value="gerenciar o seu perfil, mudando credenciais de login." style="ellipse;whiteSpace=wrap;html=1;" vertex="1" parent="1">
          <mxGeometry x="230" y="240" width="140" height="70" as="geometry" />
        </mxCell>
        <mxCell id="3Y7h35E7F_VyLYyRQoFp-39" value="recuperar a senha" style="ellipse;whiteSpace=wrap;html=1;" vertex="1" parent="1">
          <mxGeometry x="210" y="-180" width="140" height="70" as="geometry" />
        </mxCell>
        <mxCell id="3Y7h35E7F_VyLYyRQoFp-42" value="avaliar postagem" style="ellipse;whiteSpace=wrap;html=1;" vertex="1" parent="1">
          <mxGeometry x="230" y="430" width="140" height="70" as="geometry" />
        </mxCell>
        <mxCell id="3Y7h35E7F_VyLYyRQoFp-44" value="&amp;nbsp;visualizar postagens que avaliou." style="ellipse;whiteSpace=wrap;html=1;" vertex="1" parent="1">
          <mxGeometry x="230" y="530" width="140" height="70" as="geometry" />
        </mxCell>
        <mxCell id="3Y7h35E7F_VyLYyRQoFp-46" value="&amp;nbsp;comentar nas postagens." style="ellipse;whiteSpace=wrap;html=1;" vertex="1" parent="1">
          <mxGeometry x="230" y="330" width="140" height="70" as="geometry" />
        </mxCell>
        <mxCell id="3Y7h35E7F_VyLYyRQoFp-54" value="denunciar postagens." style="ellipse;whiteSpace=wrap;html=1;" vertex="1" parent="1">
          <mxGeometry x="230" y="630" width="140" height="70" as="geometry" />
        </mxCell>
        <mxCell id="3Y7h35E7F_VyLYyRQoFp-81" style="edgeStyle=orthogonalEdgeStyle;rounded=0;orthogonalLoop=1;jettySize=auto;html=1;entryX=0;entryY=0.5;entryDx=0;entryDy=0;dashed=1;" edge="1" parent="1" source="3Y7h35E7F_VyLYyRQoFp-57" target="3Y7h35E7F_VyLYyRQoFp-79">
          <mxGeometry relative="1" as="geometry" />
        </mxCell>
        <mxCell id="3Y7h35E7F_VyLYyRQoFp-84" value="Include" style="edgeLabel;html=1;align=center;verticalAlign=middle;resizable=0;points=[];" vertex="1" connectable="0" parent="3Y7h35E7F_VyLYyRQoFp-81">
          <mxGeometry x="0.3565" y="1" relative="1" as="geometry">
            <mxPoint x="42" y="1" as="offset" />
          </mxGeometry>
        </mxCell>
        <mxCell id="3Y7h35E7F_VyLYyRQoFp-82" style="edgeStyle=orthogonalEdgeStyle;rounded=0;orthogonalLoop=1;jettySize=auto;html=1;entryX=0;entryY=0.5;entryDx=0;entryDy=0;dashed=1;" edge="1" parent="1" source="3Y7h35E7F_VyLYyRQoFp-57" target="3Y7h35E7F_VyLYyRQoFp-80">
          <mxGeometry relative="1" as="geometry" />
        </mxCell>
        <mxCell id="3Y7h35E7F_VyLYyRQoFp-83" value="Extend" style="edgeLabel;html=1;align=center;verticalAlign=middle;resizable=0;points=[];" vertex="1" connectable="0" parent="3Y7h35E7F_VyLYyRQoFp-82">
          <mxGeometry x="0.3655" y="2" relative="1" as="geometry">
            <mxPoint x="15" y="2" as="offset" />
          </mxGeometry>
        </mxCell>
        <mxCell id="3Y7h35E7F_VyLYyRQoFp-57" value="denunciar usuários." style="ellipse;whiteSpace=wrap;html=1;" vertex="1" parent="1">
          <mxGeometry x="230" y="720" width="140" height="70" as="geometry" />
        </mxCell>
        <mxCell id="3Y7h35E7F_VyLYyRQoFp-62" value="remover o conteúdo do site" style="ellipse;whiteSpace=wrap;html=1;" vertex="1" parent="1">
          <mxGeometry x="-440" y="-290" width="140" height="70" as="geometry" />
        </mxCell>
        <mxCell id="3Y7h35E7F_VyLYyRQoFp-64" value="visualizar o histórico de denuncias de usuários." style="ellipse;whiteSpace=wrap;html=1;" vertex="1" parent="1">
          <mxGeometry x="-440" y="-200" width="140" height="70" as="geometry" />
        </mxCell>
        <mxCell id="3Y7h35E7F_VyLYyRQoFp-74" value="Bloquear Admins e Roots de Menor Hierarquia" style="ellipse;whiteSpace=wrap;html=1;" vertex="1" parent="1">
          <mxGeometry x="-440" y="460" width="140" height="70" as="geometry" />
        </mxCell>
        <mxCell id="3Y7h35E7F_VyLYyRQoFp-90" style="edgeStyle=orthogonalEdgeStyle;rounded=0;orthogonalLoop=1;jettySize=auto;html=1;exitX=1;exitY=0.5;exitDx=0;exitDy=0;entryX=1;entryY=0.5;entryDx=0;entryDy=0;dashed=1;" edge="1" parent="1" source="3Y7h35E7F_VyLYyRQoFp-77" target="3Y7h35E7F_VyLYyRQoFp-32">
          <mxGeometry relative="1" as="geometry" />
        </mxCell>
        <mxCell id="3Y7h35E7F_VyLYyRQoFp-91" value="Include" style="edgeLabel;html=1;align=center;verticalAlign=middle;resizable=0;points=[];" vertex="1" connectable="0" parent="3Y7h35E7F_VyLYyRQoFp-90">
          <mxGeometry x="0.0549" relative="1" as="geometry">
            <mxPoint as="offset" />
          </mxGeometry>
        </mxCell>
        <mxCell id="3Y7h35E7F_VyLYyRQoFp-77" value="Remover postagem" style="ellipse;whiteSpace=wrap;html=1;" vertex="1" parent="1">
          <mxGeometry x="230" y="50" width="140" height="70" as="geometry" />
        </mxCell>
        <mxCell id="3Y7h35E7F_VyLYyRQoFp-79" value="Selecionar Motivo" style="ellipse;whiteSpace=wrap;html=1;" vertex="1" parent="1">
          <mxGeometry x="596.43" y="610" width="140" height="70" as="geometry" />
        </mxCell>
        <mxCell id="3Y7h35E7F_VyLYyRQoFp-80" value="Descrever" style="ellipse;whiteSpace=wrap;html=1;" vertex="1" parent="1">
          <mxGeometry x="596.43" y="750" width="140" height="70" as="geometry" />
        </mxCell>
        <mxCell id="3Y7h35E7F_VyLYyRQoFp-86" value="" style="line;strokeWidth=1;fillColor=none;align=left;verticalAlign=middle;spacingTop=-1;spacingLeft=3;spacingRight=3;rotatable=0;labelPosition=right;points=[];portConstraint=eastwest;strokeColor=inherit;dashed=1;" vertex="1" parent="1">
          <mxGeometry x="370" y="661" width="110" height="8" as="geometry" />
        </mxCell>
      </root>
    </mxGraphModel>
  </diagram>
</mxfile>
